<svg id="Background" xmlns="http://www.w3.org/2000/svg" viewBox="0 0 1200 800"><defs><style>.cls-1{fill:#5f9ea0;}.cls-2{fill:#fcd866;}.cls-3{fill:#e9696b;}.cls-4{fill:#a73e5c;}.cls-5{fill:#5e4f41;}</style></defs><path class="cls-1" d="M1184.61,524.23a15.53,15.53,0,0,0,15.39,27V515.34Z"/><path class="cls-1" d="M844.85,18.38a20.53,20.53,0,0,0,20.52,35.56L958.8,0H876.68L844.85,18.38Z"/><path class="cls-1" d="M831.9,83.5a20.53,20.53,0,1,0,20.53,35.56L999.12,34.37l.16.26A9.76,9.76,0,0,1,1008.73,51l.15.26L941.77,90a12.48,12.48,0,1,0,12.49,21.62L1058.4,51.51l4.65-2.69a8,8,0,1,1,8,13.93l-4.65,2.68L1057,70.89,951.49,131.8A20.53,20.53,0,1,0,972,167.36l103-59.47,12-6.9,15-8.66,7.75-4.48a4.44,4.44,0,0,1,4.44,7.68l-22.76,13.14-23.55,13.6a12.48,12.48,0,1,0,12.49,21.62l15.21-8.78,8.34-4.82,15-8.65,1.49-.87a8,8,0,0,1,8.05,13.93l-6.82,3.94-9.67,5.58-8.34,4.82h0l-38.52,22.24A18.31,18.31,0,1,0,1083.38,203l9.39-5.43h0l10.31-5.95h0l2.27-1.31.09.14a21.72,21.72,0,0,1,27.32,9.12h0a21.72,21.72,0,0,1-5.76,28.23l.08.14-11.24,6.49-1.34.77-.34.2-32.47,18.75L972.37,317.25A10.6,10.6,0,0,0,983,335.6l109.32-63.11,14-8.08a6.82,6.82,0,0,1,6.82,11.82l-5.78,3.34-8.21,4.74-7.08,4.08h0l-32.69,18.87a15.54,15.54,0,0,0,15.54,26.92l39.77-23,3.95-2.28a6.82,6.82,0,1,1,6.82,11.82l-4,2.28L1090,341.18l-92.31,53.3a17.42,17.42,0,0,0,17.42,30.18l87.4-50.47,4.92-2.83,18-10.37,6.59-3.8a3.76,3.76,0,0,1,3.76,6.51h0l-18.47,10.66-6.07,3.51L986.74,449.75a17.42,17.42,0,1,0,17.42,30.17l124.49-71.87.13.23a8.27,8.27,0,0,1,8,13.87l.14.24-1.79,1-25.56,14.76L1080,455.26a10.6,10.6,0,0,0,10.6,18.36L1114.15,460l64.8-37.42,4-2.28h0a6.82,6.82,0,0,1,6.82,11.82l-4,2.28-97.54,56.32a17.42,17.42,0,0,0,17.42,30.18l87.4-50.47,7-4V0H976.53L972.8,2.15Z"/><path class="cls-1" d="M1187,482.64a10.6,10.6,0,1,0,10.6,18.35l2.43-1.4V475.12l-3.19,1.84Z"/><path class="cls-2" d="M537.88,36.58a8,8,0,0,0,8,13.92l4.66-2.68L633.39,0H601.23L542.54,33.89Z"/><path class="cls-2" d="M1178.92,545.46a15.54,15.54,0,0,1,5.69-21.23l15.39-8.89V499.59l-2.43,1.4a10.6,10.6,0,1,1-10.6-18.35l9.84-5.68,3.19-1.84v-8.69l-7,4-87.4,50.47a17.42,17.42,0,0,1-17.42-30.18l97.54-56.32,4-2.28a6.82,6.82,0,0,0-6.82-11.82h0l-4,2.28L1114.15,460l-23.57,13.61a10.6,10.6,0,0,1-10.6-18.36l29.6-17.08,25.56-14.76,1.79-1-.14-.24a8.27,8.27,0,0,0-8-13.87l-.13-.23-124.49,71.87a17.42,17.42,0,1,1-17.42-30.17l124.49-71.88,6.07-3.51,18.47-10.66h0a3.76,3.76,0,0,0-3.76-6.51l-6.59,3.8-18,10.37-4.92,2.83-87.4,50.47a17.42,17.42,0,0,1-17.42-30.18l92.31-53.3L1121.47,323l4-2.28a6.82,6.82,0,1,0-6.82-11.82l-3.95,2.28-39.77,23a15.54,15.54,0,0,1-15.54-26.92L1092,288.39h0l7.08-4.08,8.21-4.74,5.78-3.34a6.82,6.82,0,0,0-6.82-11.82l-14,8.08L983,335.6a10.6,10.6,0,0,1-10.6-18.35l109.32-63.11,32.47-18.75.34-.2,1.34-.77,11.24-6.49-.08-.14a21.72,21.72,0,0,0,5.76-28.23h0a21.72,21.72,0,0,0-27.32-9.12l-.09-.14-2.27,1.31h0l-10.31,5.95h0l-9.39,5.43a18.31,18.31,0,1,1-18.31-31.72L1103.59,149h0l8.34-4.82,9.67-5.58,6.82-3.94a8,8,0,0,0-8.05-13.93l-1.49.87-15,8.65-8.34,4.82-15.21,8.78a12.48,12.48,0,1,1-12.49-21.62l23.55-13.6,22.76-13.14a4.44,4.44,0,0,0-4.44-7.68L1102,92.33,1087,101l-12,6.9L972,167.36a20.53,20.53,0,1,1-20.53-35.56L1057,70.89l9.46-5.46,4.65-2.68a8,8,0,1,0-8-13.93l-4.65,2.69L954.26,111.63A12.48,12.48,0,1,1,941.77,90l67.11-38.75-.15-.26a9.76,9.76,0,0,0-9.45-16.37l-.16-.26L852.43,119.06A20.53,20.53,0,1,1,831.9,83.5L972.8,2.15,976.53,0H958.8L865.37,53.94a20.53,20.53,0,0,1-20.52-35.56h0L876.68,0H696.3a20.51,20.51,0,0,1-10.24,17L571.11,83.37l-15,8.66h0l-7.76,4.48a4.43,4.43,0,0,0,4.43,7.68l7.76-4.48,15-8.66,12-6.9,11.6-6.7a12.49,12.49,0,0,1,12.48,21.63l-15.21,8.78L588,112.68l-6.19,3.57-10.29,6a8,8,0,1,0,8,13.92l6.81-3.93,9.67-5.59,8.34-4.81h0l38.52-22.24a18.31,18.31,0,1,1,18.31,31.71l-46.86,27.06-9.67,5.58-28.58,16.5-3.38,1.95h0l-33.1,19.11-.5.29-23.28,13.44-35.28,20.37a17.41,17.41,0,0,0-6.36,23.73h0a17.37,17.37,0,0,0,22,7.24,17.89,17.89,0,0,0,1.75-.88l58.56-33.81.41.72,37-21.35,38.26-22.09L761,114.75a12.48,12.48,0,1,1,12.48,21.62L650.89,207.14l-6.25,3.6-5.4,3.12-11.09,6.4a8,8,0,1,0,8.05,13.93l6.81-3.94,9.67-5.58,8.34-4.81h0l38.52-22.24a18.31,18.31,0,1,1,18.31,31.72l-26.69,15.41L671,256.38l-4.65,2.69h0a8,8,0,1,0,8,13.93h0l4.65-2.69,15.88-9.16,4.3-2.49,14.3-8.25,2.56-1.48,108.78-62.81a20.53,20.53,0,1,1,20.53,35.56L736.6,284.49,715.44,296.7l-7.76,4.48a4.43,4.43,0,0,0,4.43,7.68L741,292.16h0l146.7-84.69A20.53,20.53,0,0,1,908.26,243l-146.7,84.69.15.27a9.76,9.76,0,0,0,9.45,16.37l.16.26,2.1-1.22h0L803.54,326l34.88-20.13a12.48,12.48,0,0,1,12.49,21.62L746.77,387.63h0l-4.36,2.51-.3.17a8,8,0,0,0,8,13.93l4.66-2.69,115-66.36a20.53,20.53,0,0,1,20.53,35.56h0l-60.5,34.92-54.45,31.44-15,8.66-7.76,4.48a4.44,4.44,0,0,0,4.44,7.68l7.75-4.48,15-8.66,23.55-13.6h0a12.49,12.49,0,0,1,12.49,21.63l-15.22,8.78-8.34,4.81-15,8.66-1.49.86a8,8,0,1,0,8,13.93l6.82-3.93,9.67-5.59,8.33-4.81h0l38.53-22.24A18.31,18.31,0,0,1,865.47,485h0l-46.87,27-9.67,5.59-28.58,16.5L753.58,549.6l-28.26,16.31h0a25.05,25.05,0,0,0-9.17,34.22h0a25.05,25.05,0,0,0,34.22,9.18h0L778.63,593l22.13-12.78L828.9,564,839,558.13l128.82-74.38a12.49,12.49,0,0,1,12.48,21.63L859.84,574.94l-2.34,1.35-6,3.46-5.4,3.12h0L835,589.27a8,8,0,1,0,8,13.93l6.82-3.94,9.67-5.58,8.33-4.82h0l38.53-22.24a18.31,18.31,0,0,1,18.31,31.71L898,613.74l-12.2,7-8,4.61-4.66,2.69a8,8,0,0,0,8,13.92l4.66-2.68,15.87-9.17,3.81-2.2.49-.28,125.65-72.54a20.53,20.53,0,0,1,20.53,35.56l-103,59.46-5.79,3.34L922.3,665.71l-7.76,4.48a4.43,4.43,0,0,0,4.43,7.68h0l28.92-16.7,5.79-3.34,140.91-81.35A20.53,20.53,0,0,1,1115.12,612l-146.7,84.7.16.26A9.76,9.76,0,0,0,978,713.36l.15.27,2.1-1.22h0l65-37.53h0a12.49,12.49,0,1,1,12.49,21.63l-34.59,20L973.8,745l-5.11,3-15.06,8.69-3.49,2-4.9,2.83L924.06,773.7a8,8,0,0,0,8,13.93l14.57-8.41,11.51-6.64.21-.13,3.28-1.89,5.07-2.93,15.1-8.72,94.78-54.72a20.53,20.53,0,0,1,20.53,35.56l-103,59.47-1.35.78H1200V551.22A15.53,15.53,0,0,1,1178.92,545.46Z"/><path class="cls-3" d="M170.84,0,121,28.8a20.53,20.53,0,0,0,20.53,35.55L253,0Z"/><path class="cls-3" d="M1122.63,584a20.52,20.52,0,0,0-28-7.51L953.68,657.83l-5.79,3.34L919,677.87h0a4.43,4.43,0,0,1-4.43-7.68l7.76-4.48,21.16-12.22,5.79-3.34,103-59.46a20.53,20.53,0,0,0-20.53-35.56L906.07,627.67l-.49.28-3.81,2.2-15.87,9.17L881.24,642a8,8,0,0,1-8-13.92l4.66-2.69,8-4.61,12.2-7,26.69-15.41a18.31,18.31,0,0,0-18.31-31.71l-38.53,22.24h0l-8.33,4.82-9.67,5.58-6.82,3.94a8,8,0,1,1-8-13.93l11.09-6.4h0l5.4-3.12,6-3.46,2.34-1.35,120.48-69.56a12.49,12.49,0,0,0-12.48-21.63L839,558.13,828.9,564l-28.14,16.24L778.63,593l-28.26,16.32h0a25.05,25.05,0,0,1-34.22-9.18h0a25.05,25.05,0,0,1,9.17-34.22h0l28.26-16.31,26.77-15.46,28.58-16.5,9.67-5.59,46.87-27h0a18.31,18.31,0,0,0-18.31-31.71l-38.53,22.24h0l-8.33,4.81-9.67,5.59-6.82,3.93a8,8,0,1,1-8-13.93l1.49-.86,15-8.66,8.34-4.81,15.22-8.78a12.49,12.49,0,0,0-12.49-21.63h0l-23.55,13.6-15,8.66L757,457.93a4.44,4.44,0,0,1-4.44-7.68l7.76-4.48,15-8.66,54.45-31.44,60.5-34.92h0a20.53,20.53,0,0,0-20.53-35.56l-115,66.36-4.66,2.69a8,8,0,0,1-8-13.93l.3-.17,4.36-2.51h0L850.91,327.5a12.48,12.48,0,0,0-12.49-21.62L803.54,326,773.42,343.4h0l-2.1,1.22-.16-.26A9.76,9.76,0,0,1,761.71,328l-.15-.27L908.26,243a20.53,20.53,0,0,0-20.53-35.56L741,292.16h0l-28.92,16.7a4.43,4.43,0,0,1-4.43-7.68l7.76-4.48,21.16-12.21,108.78-62.81a20.53,20.53,0,1,0-20.53-35.56L716.07,248.93l-2.56,1.48-14.3,8.25-4.3,2.49L679,270.31,674.38,273h0a8,8,0,1,1-8-13.93h0l4.65-2.69,20.17-11.64,26.69-15.41a18.31,18.31,0,1,0-18.31-31.72L661,219.85h0l-8.34,4.81L643,230.25l-6.81,3.94a8,8,0,1,1-8.05-13.93l11.09-6.4,5.4-3.12,6.25-3.6,122.57-70.77A12.48,12.48,0,1,0,761,114.75L632.16,189.12,593.9,211.21l-37.39,20.63L498,265.65a17.89,17.89,0,0,1-1.75.88,17.37,17.37,0,0,1-22-7.24h0a17.41,17.41,0,0,1,6.36-23.73l35.28-20.37,23.28-13.44.5-.29,33.1-19.11h0l3.38-1.95,28.58-16.5,9.67-5.58,46.86-27.06a18.31,18.31,0,1,0-18.31-31.71L604.4,121.79h0l-8.34,4.81-9.67,5.59-6.81,3.93a8,8,0,1,1-8-13.92l10.29-6,6.19-3.57,8.34-4.82,15.21-8.78a12.49,12.49,0,0,0-12.48-21.63l-11.6,6.7-12,6.9-15,8.66-7.76,4.48a4.43,4.43,0,0,1-4.43-7.68L556.11,92h0l15-8.66L686.06,17A20.51,20.51,0,0,0,696.3,0H633.39L550.58,47.82l-4.66,2.68a8,8,0,0,1-8-13.92l4.66-2.69L601.23,0H364.11a8,8,0,0,1-3.95,8l-4.66,2.69L240.55,77.09a20.53,20.53,0,0,0,20.53,35.56l103-59.46L376,46.28l15-8.65,7.76-4.48a4.43,4.43,0,0,1,4.43,7.68l-7.76,4.47-15,8.66-12,6.9-11.59,6.7A12.48,12.48,0,0,0,369.4,89.18l15.21-8.78L393,75.59l15-8.66,1.49-.86a8,8,0,0,1,8,13.93l-6.82,3.93L401,89.51l-8.34,4.82h0l-38.52,22.24a18.31,18.31,0,1,0,18.31,31.71l46.86-27,5.16-3L451,102.91l23.84-13.77a14.8,14.8,0,0,1,14.8,25.63l-.57.32-23.27,13.44-37,21.35-11.16,6.45h0L396,168.85,261.77,246.34A12.49,12.49,0,0,0,274.26,268l120.48-69.56,2.09-1.21,6.24-3.61h0l16.49-9.51a8,8,0,1,1,8,13.92l-6.81,3.94-9.67,5.58-8.34,4.82h0l-38.53,22.25a18.31,18.31,0,0,0,18.31,31.71l46.86-27.06,4.66-2.68a8,8,0,0,1,8,13.92h0l-4.65,2.69-15.88,9.17-3.1,1.79-1.2.69-16.86,9.73L291.65,337.35a20.53,20.53,0,1,0,20.52,35.56l103-59.47L421,310.1l21.16-12.22,7.76-4.47a4.43,4.43,0,1,1,4.43,7.67h0l-28.92,16.7-5.79,3.34L278.7,402.47A20.53,20.53,0,1,0,299.23,438l114.46-66.09,10.18-5.87,22.05-12.73.16.26A9.76,9.76,0,0,1,455.53,370l.15.27-2.11,1.21-.45.26L388.57,409a12.48,12.48,0,1,0,12.49,21.62l84-48.48,10.85-6.26,9.32-5.38,4.65-2.69a8,8,0,1,1,8,13.93l-4.65,2.69-15.05,8.68-5.12,3-94.78,54.72a20.53,20.53,0,1,0,20.53,35.56l103-59.46,12-6.91,15-8.65,7.75-4.48A4.43,4.43,0,1,1,561,414.5l-12.55,7.25-10.21,5.89-23.55,13.6h0l-95.06,54.88a12.48,12.48,0,1,0,12.49,21.62l95.06-54.88h0l15.21-8.78,3.1-1.79,5.24-3,1.87-1.08,2.09-1.21,5.87-3.39.38-.22,4.78-2.76.62-.36.87-.5,10.21-5.9a8,8,0,0,1,8,13.93l-6.82,3.93-9.67,5.59-.54.31-7.8,4.5h0l-1.87,1.08-3.31,1.91-5,2.91-38.52,22.24A18.31,18.31,0,1,0,530.17,522h0l10.2-5.89h0L577,494.91l9.67-5.59.54-.31,9.67-5.58,15.49-8.95,2.88-1.66,10.21-5.9,26.77-15.45L675.55,438l6.41-3.7a8,8,0,0,1,8,13.92l-29.69,17.14-26.78,15.46-33.6,19.4h0l-4.65,2.69-15.87,9.16-1.27.73-19.9,11.49L449.47,587.13A20.53,20.53,0,1,0,470,622.69l103-59.47,5.79-3.34,21.16-12.22,7.76-4.48a4.43,4.43,0,1,1,4.43,7.68l-28.91,16.7-146.7,84.69a20.53,20.53,0,1,0,20.53,35.56l146.7-84.7.15.27a9.76,9.76,0,0,1,9.45,16.37l.15.26-67.1,38.74a12.49,12.49,0,0,0,12.48,21.63l84-48.48h0L663,620.25l.43-.24,4.23-2.44a8,8,0,0,1,8,13.92l-4.66,2.69L556.11,700.55a20.53,20.53,0,0,0,20.53,35.56l103-59.47,12-6.9,15-8.66,7.75-4.48a4.44,4.44,0,0,1,4.44,7.68L711,668.76l-9.22,5.32L696,677.42l-11.95,6.9h0L672.47,691A12.49,12.49,0,0,0,685,712.64l15.21-8.78,8.34-4.82,15-8.66,1.49-.86a8,8,0,0,1,8,13.93l-6.82,3.94L716.55,713l-8.34,4.81h0L669.69,740A18.31,18.31,0,0,0,688,771.74l9.07-5.24h0l35-20.21,2.79-1.61,38.26-22.09,22.13-12.77,23.8-13.74h0a12.66,12.66,0,0,1,17.3,4.63h0a12.67,12.67,0,0,1-4.64,17.3h0l-3.8,2.2-18.09,10.44-1.91,1.1-3.49,2h0L689.7,800h49.94l68.93-39.79,8.34-4.82,3.49-2,1.91-1.11,11.08-6.4a8,8,0,0,1,8.05,13.93l-6.82,3.94-6.18,3.56-3.49,2-8.34,4.81h0l-38.52,22.24a18.57,18.57,0,0,0-4.48,3.63H992.8l1.35-.78,103-59.47a20.53,20.53,0,0,0-20.53-35.56l-94.78,54.72-15.1,8.72-5.07,2.93-3.28,1.89-.21.13-11.51,6.64-14.57,8.41a8,8,0,0,1-8-13.93l21.18-12.22,4.9-2.83,3.49-2,15.06-8.69,5.11-3,49.38-28.51,34.59-20a12.49,12.49,0,1,0-12.49-21.63h0l-65,37.53h0l-2.1,1.22-.15-.27A9.76,9.76,0,0,1,968.58,697l-.16-.26,146.7-84.7A20.52,20.52,0,0,0,1122.63,584Z"/><path class="cls-3" d="M243.32,56.92l84-48.47L341.92,0H292L230.84,35.3a12.48,12.48,0,1,0,12.48,21.62Z"/><path class="cls-4" d="M778.09,796.37l38.52-22.24h0l8.34-4.81,3.49-2,6.18-3.56,6.82-3.94a8,8,0,0,0-8.05-13.93l-11.08,6.4-1.91,1.11-3.49,2-8.34,4.82L739.64,800h34A18.57,18.57,0,0,1,778.09,796.37Z"/><path class="cls-4" d="M836.35,700.71h0a12.66,12.66,0,0,0-17.3-4.63h0l-23.8,13.74-22.13,12.77-38.26,22.09-2.79,1.61-35,20.21h0L688,771.74A18.31,18.31,0,0,1,669.69,740l38.52-22.24h0l8.34-4.81,9.67-5.58,6.82-3.94a8,8,0,0,0-8-13.93l-1.49.86-15,8.66-8.34,4.82L685,712.64A12.49,12.49,0,0,1,672.47,691l11.6-6.69h0l11.95-6.9,5.78-3.34,9.22-5.32,7.76-4.48a4.44,4.44,0,0,0-4.44-7.68l-7.75,4.48-15,8.66-12,6.9-103,59.47a20.53,20.53,0,0,1-20.53-35.56l114.95-66.37,4.66-2.69a8,8,0,0,0-8-13.92L663.45,620l-.43.24L642.85,631.9h0l-84,48.48a12.49,12.49,0,0,1-12.48-21.63L613.5,620l-.15-.26a9.76,9.76,0,0,0-9.45-16.37l-.15-.27-146.7,84.7a20.53,20.53,0,1,1-20.53-35.56l146.7-84.69,28.91-16.7a4.43,4.43,0,1,0-4.43-7.68l-7.76,4.48-21.16,12.22L573,563.22,470,622.69a20.53,20.53,0,1,1-20.53-35.56l108.78-62.81,19.9-11.49,1.27-.73,15.87-9.16,4.65-2.69h0l33.6-19.4,26.78-15.46L690,448.25a8,8,0,1,0-8-13.92l-6.41,3.7-23.28,13.44L625.5,466.92l-10.21,5.9-2.88,1.66-15.49,8.95L587.25,489l-.54.31L577,494.91l-36.65,21.16h0L530.18,522h0a18.31,18.31,0,1,1-18.3-31.71L550.39,468l5-2.91,3.31-1.91,1.87-1.08h0l7.8-4.5.54-.31,9.67-5.59,6.82-3.93a8,8,0,0,0-8-13.93l-10.21,5.9-.87.5-.62.36-4.78,2.76-.38.22L554.65,447l-2.09,1.21-1.87,1.08-5.24,3-3.1,1.79-15.21,8.78h0l-95.06,54.88a12.48,12.48,0,1,1-12.49-21.62l95.06-54.88h0l23.55-13.6,10.21-5.89L561,414.5a4.43,4.43,0,1,0-4.44-7.67l-7.75,4.48-15,8.65-12,6.91-103,59.46a20.53,20.53,0,1,1-20.53-35.56l94.78-54.72,5.12-3,15.05-8.68,4.65-2.69a8,8,0,1,0-8-13.93l-4.65,2.69-9.32,5.38L485,382.12l-84,48.48A12.48,12.48,0,1,1,388.57,409l64.55-37.27.45-.26,2.11-1.21-.15-.27a9.76,9.76,0,0,0-9.45-16.37l-.16-.26-22.05,12.73-10.18,5.87L299.23,438a20.53,20.53,0,1,1-20.53-35.56l140.9-81.35,5.79-3.34,28.92-16.7h0a4.43,4.43,0,1,0-4.43-7.67l-7.76,4.47L421,310.1l-5.79,3.34-103,59.47a20.53,20.53,0,1,1-20.52-35.56l108.78-62.81,16.86-9.73,1.2-.69,3.1-1.79,15.88-9.17,4.65-2.69h0a8,8,0,0,0-8-13.92l-4.66,2.68-46.86,27.06a18.31,18.31,0,0,1-18.31-31.71l38.53-22.25h0l8.34-4.82,9.67-5.58L427.6,198a8,8,0,1,0-8-13.92l-16.49,9.51h0l-6.24,3.61-2.09,1.21L274.26,268a12.49,12.49,0,0,1-12.49-21.63L396,168.85l21.7-12.52h0l11.16-6.45,37-21.35,23.27-13.44.57-.32a14.8,14.8,0,0,0-14.8-25.63L451,102.91l-26.57,15.34-5.16,3-46.86,27.05a18.31,18.31,0,1,1-18.31-31.71l38.52-22.24h0L401,89.51l9.67-5.58L417.48,80a8,8,0,0,0-8-13.93l-1.49.86-15,8.66-8.34,4.81L369.4,89.18a12.48,12.48,0,0,1-12.48-21.62l11.59-6.7,12-6.9,15-8.66,7.76-4.47a4.43,4.43,0,0,0-4.43-7.68L391,37.63l-15,8.65-11.95,6.91-103,59.46a20.53,20.53,0,0,1-20.53-35.56l115-66.36L360.16,8a8,8,0,0,0,3.95-8H341.92L327.29,8.45l-84,48.47A12.48,12.48,0,1,1,230.84,35.3L292,0H253L141.49,64.35A20.53,20.53,0,0,1,121,28.8L170.84,0H0V122.56l37.19-21.47a12.49,12.49,0,0,1,12.48,21.63L0,151.4v79.42l101.07-58.35A20.53,20.53,0,0,1,121.6,208L12.81,270.83h0L0,278.23v10.24l17.24-10,146.7-84.69a20.53,20.53,0,0,1,20.53,35.55l-146.7,84.7.15.26a9.76,9.76,0,0,0,9.45,16.37l.16.27,2.1-1.22h0l30.13-17.39,34.87-20.14a12.49,12.49,0,1,1,12.49,21.63l-84,48.48L34,367.61,23,374l-4.66,2.69a8,8,0,0,0,8,13.93L31,387.9h0l115-66.37a20.53,20.53,0,0,1,20.53,35.56L51.55,423.46,28.8,436.6a4.43,4.43,0,1,0,4.43,7.67L41,439.8l15-8.66,12-6.91,11.59-6.69A12.48,12.48,0,1,1,92,439.16L76.8,448l-8.33,4.81-15,8.66-1.49.86a8,8,0,0,0,8,13.93l6.82-3.94,9.67-5.58,8.34-4.82h0l38.53-22.24a18.31,18.31,0,0,1,18.31,31.72l-46.86,27L85.15,504l-3.81,2.2L56.56,520.49l-5.1,3L48.78,525h0l-.36.21h0a15.59,15.59,0,0,0,15.58,27h0l.23-.13.13-.08h0l2.67-1.54,5.11-3L79.89,543l17-9.83,13.48-7.79L239.23,451a12.48,12.48,0,0,1,12.49,21.62l-122.45,70.7L122.9,547l-5.4,3.12-11.09,6.4a8,8,0,1,0,8,13.92l6.82-3.93,9.67-5.58,8.34-4.82h0l38.52-22.24a18.31,18.31,0,1,1,18.31,31.71L169.42,581l-20.17,11.65-4.66,2.68h0a8,8,0,0,0,8,13.93h0l4.66-2.69,20-11.57,17-9.81,108.79-62.8A20.53,20.53,0,1,1,323.64,558L214.85,620.78h0l-28.92,16.7a4.44,4.44,0,0,0,4.44,7.68l9.3-5.37,19.61-11.33,5.79-3.34L366,543.76a20.53,20.53,0,1,1,20.53,35.56L239.81,664l.16.26a9.76,9.76,0,0,0,9.45,16.37l.15.27,2.11-1.22h0l30.12-17.39,34.87-20.14a12.49,12.49,0,0,1,12.49,21.63l-84,48.48-12.25,7.07L225,723.92h0l-2.75,1.59-1.9,1.1a8,8,0,1,0,8,13.93h0l4.65-2.69,8-4.62L348,671.48A20.53,20.53,0,1,1,368.54,707l-115,66.37-22.75,13.13a4.43,4.43,0,0,0,4.43,7.68l7.76-4.48,15-8.66,12-6.9,11.59-6.69a12.48,12.48,0,1,1,12.49,21.62l-15.21,8.79L275.2,800h32.16l18.05-10.42A18.32,18.32,0,0,1,352.05,800H689.7l114.72-66.23h0l3.49-2,1.91-1.1,18.09-10.44,3.8-2.2h0A12.67,12.67,0,0,0,836.35,700.71Z"/><path class="cls-5" d="M350.42,796.28a18.21,18.21,0,0,1,1.63,3.72H307.36l18.05-10.42A18.3,18.3,0,0,1,350.42,796.28ZM49.67,122.72a12.49,12.49,0,0,0-12.48-21.63L0,122.56V151.4ZM275.2,800l3.65-2.1,15.21-8.79a12.48,12.48,0,1,0-12.49-21.62L270,774.18l-12,6.9-15,8.66-7.76,4.48a4.43,4.43,0,0,1-4.43-7.68l22.75-13.13,115-66.37A20.53,20.53,0,1,0,348,671.48L241.07,733.23l-8,4.62-4.65,2.69h0a8,8,0,1,1-8-13.93l1.9-1.1,2.75-1.59h0l7.92-4.57,12.25-7.07,84-48.48a12.49,12.49,0,0,0-12.49-21.63L281.8,662.31,251.68,679.7h0l-2.11,1.22-.15-.27A9.76,9.76,0,0,1,240,664.28l-.16-.26,146.7-84.7A20.53,20.53,0,1,0,366,543.76L225.07,625.12l-5.79,3.34-19.61,11.33-9.3,5.37a4.44,4.44,0,0,1-4.44-7.68l28.92-16.7h0L323.64,558a20.53,20.53,0,1,0-20.53-35.55l-108.79,62.8-17,9.81-20,11.57-4.66,2.69h0a8,8,0,0,1-8-13.93h0l4.66-2.68L169.42,581l26.69-15.41a18.31,18.31,0,1,0-18.31-31.71l-38.52,22.24h0L130.94,561l-9.67,5.58-6.82,3.93a8,8,0,1,1-8-13.92l11.09-6.4,5.4-3.12,6.37-3.68,122.45-70.7A12.48,12.48,0,0,0,239.23,451L110.41,525.41,96.93,533.2l-17,9.83-7.73,4.47-5.11,3L64.38,552h0l-.13.08-.23.13h0a15.59,15.59,0,0,1-15.58-27h0l.36-.21h0l2.68-1.54,5.1-3,24.78-14.31,3.81-2.2,9.67-5.58,46.86-27a18.31,18.31,0,0,0-18.31-31.72L84.84,461.87h0l-8.34,4.82-9.67,5.58L60,476.21a8,8,0,0,1-8-13.93l1.49-.86,15-8.66L76.8,448,92,439.16a12.48,12.48,0,1,0-12.49-21.62l-11.59,6.69-12,6.91L41,439.8l-7.75,4.47a4.43,4.43,0,1,1-4.43-7.67l22.75-13.14,115-66.37A20.53,20.53,0,0,0,146,321.53L31,387.9h0l-4.66,2.69a8,8,0,0,1-8-13.93L23,374l11-6.36,9.16-5.28,84-48.48a12.49,12.49,0,1,0-12.49-21.63L79.76,312.36,49.63,329.75h0L47.53,331l-.16-.27a9.76,9.76,0,0,1-9.45-16.37l-.15-.26,146.7-84.7a20.53,20.53,0,0,0-20.53-35.55L17.24,278.51,0,288.47V800ZM12.81,270.83h0L121.6,208a20.53,20.53,0,0,0-20.53-35.56L0,230.82v47.41Z"/></svg>