<?xml version="1.0" encoding="utf-8"?>
<!-- Generator: Adobe Illustrator 16.0.0, SVG Export Plug-In . SVG Version: 6.00 Build 0)  -->
<!DOCTYPE svg PUBLIC "-//W3C//DTD SVG 1.1//EN" "http://www.w3.org/Graphics/SVG/1.1/DTD/svg11.dtd">
<svg version="1.1" id="Layer_2" xmlns="http://www.w3.org/2000/svg" xmlns:xlink="http://www.w3.org/1999/xlink" x="0px" y="0px"
	 width="512px" height="512px" viewBox="0 0 512 512" enable-background="new 0 0 512 512" xml:space="preserve">
<path fill="#FF219B" d="M95.313,417.916c-1.227,0-2.425-0.481-3.317-1.373c-1.21-1.209-1.666-2.982-1.19-4.625l14.818-51.156
	c0.462-1.594,1.731-2.826,3.338-3.238c1.606-0.414,3.313,0.053,4.486,1.226l36.308,36.307c1.173,1.173,1.64,2.879,1.227,4.485
	s-1.643,2.876-3.236,3.339l-51.125,14.848C96.19,417.854,95.75,417.916,95.313,417.916z"/>
<g>
	<path fill="#FF219B" d="M438.088,163.326c13.258,10.535,24.72,23.102,33.979,37.364c18.826,28.996,28.371,63.853,28.371,103.601
		c0,34.865-7.936,66.355-23.588,93.595c-12.523,21.795-29.96,40.881-51.827,56.728c-37.08,26.871-73.666,35.021-75.205,35.354
		c-0.393,0.085-0.785,0.126-1.171,0.126c-2.533,0-4.811-1.759-5.37-4.335c-0.644-2.969,1.241-5.897,4.209-6.541
		c0.354-0.077,36.172-8.106,71.4-33.744c20.52-14.933,36.853-32.858,48.543-53.276c14.603-25.503,22.007-55.08,22.007-87.908
		c0-56.802-21.005-103.39-58.819-132.968L438.088,163.326z M271.705,144.502c-46.63,12.033-91.603,38.853-130.061,77.56
		c-2.56,2.84-36.939,40.196-73.233,40.2c-0.489,0-0.971-0.007-1.46-0.021c-6.031-0.168-11.749-1.37-17.131-3.591
		c-24.036,62.953-21.826,123.005,7.883,164.352c37.447,52.118,113.946,68.598,215.402,46.407
		c67.507-14.766,112.466-48.761,138.295-74.679c30.075-30.18,49.738-65.562,51.314-92.339c0.635-10.799-1.533-24.683-15.471-29.503
		c-27.693-9.573-49.253,13.575-79.091,45.621c-24.982,26.831-56.074,60.222-100.631,82.896
		c-51.003,25.954-95.912,30.222-124.596,29.238c-31.303-1.077-50.377-8.325-51.174-8.633c-2.833-1.095-4.242-4.28-3.146-7.113
		c1.094-2.83,4.275-4.24,7.105-3.149l0,0c0.182,0.07,18.516,6.976,48.12,7.92c27.275,0.872,70.019-3.292,118.703-28.066
		c42.823-21.791,71.909-53.028,97.57-80.588c31.44-33.767,56.273-60.437,90.736-48.521c15.723,5.437,24.054,20.215,22.857,40.545
		c-3.26,55.382-75.73,150.322-198.239,177.119c-30.172,6.6-58.284,9.861-83.982,9.862c-64.594,0.001-113.968-20.603-142.704-60.597
		c-32.117-44.701-34.584-109.163-8.654-176.138c-4.615-3.256-8.927-7.392-12.917-12.397c-22.266-27.934-20.681-63.018,4.583-101.459
		c18.474-28.109,42.85-47.94,43.879-48.771c0.051-0.041,0.102-0.082,0.154-0.121c43.627-32.723,117.684-70.465,222.661-64.474
		c2.063,0.082,21.213,1.136,28.804,11.599c3.073,4.236,3.869,9.402,2.301,14.941c-4.41,15.583-30.575,17.813-34.363,18.055
		c-47.467,5.72-90.719,20.511-128.562,43.962c-38.08,23.598-69.007,54.945-91.924,93.17c-8.122,13.548-15.061,27.158-20.802,40.672
		c4.179,1.731,8.61,2.653,13.328,2.785c32.396,0.896,65.948-36.25,66.283-36.625c0.065-0.073,0.131-0.144,0.2-0.212
		c39.874-40.165,86.63-68.021,135.216-80.558c5.499-1.419,10.982-2.636,16.441-3.653L271.705,144.502z M82.504,99.27
		c-1.412,1.157-24.6,20.36-41.654,46.388c-22.599,34.49-24.298,64.223-5.049,88.372c2.74,3.437,5.604,6.35,8.608,8.747
		c5.818-13.53,12.784-27.124,20.889-40.644c23.827-39.744,55.979-72.333,95.564-96.864c39.257-24.327,84.073-39.653,133.203-45.553
		c0.111-0.013,0.222-0.023,0.333-0.03c8.92-0.542,22.913-4.122,24.599-10.08c0.835-2.953,0.107-4.483-0.621-5.486
		c-3.533-4.87-15.292-6.867-20.432-7.071C196.238,31.244,124.675,67.662,82.504,99.27z"/>
	<path fill="#ffffff"  d="M129.307,305.723L99.475,408.987l103.204-29.893l11.703,7.777L93.114,421.997c-0.492,0.143-0.994,0.211-1.491,0.211
		c-1.402,0-2.771-0.55-3.792-1.569c-1.382-1.381-1.903-3.405-1.361-5.282l35.053-121.337c0.526-1.823,1.978-3.232,3.814-3.705
		c1.838-0.473,3.789,0.06,5.13,1.401L129.307,305.723z"/>
	<path fill="#ffffff"  d="M91.658,422.244c-1.402,0-2.771-0.55-3.791-1.569c-1.383-1.382-1.904-3.408-1.36-5.286l16.937-58.47
		c0.528-1.822,1.979-3.229,3.815-3.701c1.836-0.473,3.787,0.06,5.127,1.401l41.499,41.498c1.341,1.341,1.874,3.291,1.402,5.126
		c-0.472,1.836-1.878,3.288-3.699,3.816l-58.435,16.971C92.661,422.174,92.157,422.244,91.658,422.244z M111.221,368.621
		l-11.7,40.392l40.368-11.724L111.221,368.621z"/>
	<path fill="#ffffff"  d="M209.489,387.352c-7.229,0-14.025-2.816-19.137-7.927c-5.112-5.112-7.927-11.908-7.927-19.137
		c0-1.318,0.093-2.622,0.278-3.904c-1.282,0.184-2.586,0.277-3.904,0.277c-7.229,0-14.026-2.814-19.137-7.926
		c-6.271-6.271-8.815-14.877-7.634-23.043c-1.287,0.186-2.596,0.28-3.919,0.28c-7.229,0-14.025-2.815-19.137-7.927
		c-10.553-10.552-10.553-27.722,0-38.274L370.753,37.988c6.801-6.801,15.843-10.546,25.461-10.546
		c9.619,0,18.662,3.746,25.463,10.546l48.801,48.802c14.04,14.04,14.04,36.884,0.001,50.924L228.697,379.496
		c-0.279,0.279-0.582,0.521-0.901,0.727C222.79,384.828,216.333,387.352,209.489,387.352z M199.507,344.942
		c0,1.373-0.523,2.746-1.571,3.793c-3.086,3.085-4.785,7.188-4.785,11.552c0,4.364,1.699,8.467,4.785,11.553
		c3.086,3.086,7.189,4.786,11.553,4.786s8.467-1.7,11.553-4.786c0.25-0.25,0.52-0.472,0.804-0.662l241.049-241.049
		c9.857-9.858,9.857-25.897,0-35.754l-48.802-48.802c-4.775-4.775-11.124-7.405-17.878-7.405c-6.753,0-13.102,2.629-17.878,7.405
		L136.556,287.354c-6.37,6.37-6.37,16.735,0,23.105c3.086,3.086,7.189,4.786,11.553,4.786c4.364,0,8.467-1.699,11.553-4.786
		c2.094-2.094,5.49-2.094,7.584,0c1.047,1.047,1.571,2.419,1.571,3.792c0,1.373-0.524,2.745-1.571,3.792
		c-6.37,6.37-6.37,16.735,0,23.105c3.086,3.086,7.189,4.786,11.553,4.786c4.365,0,8.467-1.7,11.553-4.785
		c2.094-2.094,5.49-2.094,7.584,0C198.984,342.198,199.507,343.57,199.507,344.942z"/>
	<path fill="#ffffff"  d="M420.62,185.14c-1.373,0-2.745-0.523-3.792-1.571l-92.071-92.07c-1.006-1.006-1.571-2.37-1.571-3.792
		s0.565-2.786,1.571-3.792l45.961-45.961c6.801-6.801,15.844-10.547,25.461-10.547c9.619,0,18.662,3.746,25.462,10.547
		l48.802,48.801c14.04,14.04,14.04,36.884,0,50.924l-46.038,45.896C423.359,184.618,421.989,185.14,420.62,185.14z M336.133,87.707
		l84.492,84.492l42.24-42.11c9.853-9.852,9.852-25.892-0.005-35.75l-48.802-48.801c-4.775-4.775-11.124-7.405-17.878-7.405
		c-6.753,0-13.103,2.629-17.877,7.405L336.133,87.707z"/>
	<line fill="#FE18A4" x1="163.454" y1="314.252" x2="359.274" y2="118.432"/>
	<path fill="#ffffff"  d="M163.454,319.616c-1.373,0-2.745-0.524-3.792-1.571c-2.095-2.094-2.095-5.49,0-7.584l195.82-195.821
		c2.094-2.094,5.49-2.094,7.584,0c2.095,2.095,2.095,5.491,0,7.585l-195.82,195.82C166.199,319.092,164.827,319.616,163.454,319.616
		z"/>
	<line fill="#FE18A4" x1="194.725" y1="345.524" x2="390.546" y2="149.703"/>
	<path fill="#ffffff"  d="M194.181,350.343c-1.372,0-2.745-0.523-3.792-1.571c-2.094-2.094-2.094-5.49,0-7.584L386.21,145.368
		c2.094-2.094,5.49-2.094,7.584,0c2.095,2.095,2.095,5.49,0,7.584l-195.82,195.82C196.927,349.82,195.554,350.343,194.181,350.343z"
		/>
	<path fill="#ffffff"  d="M420.62,185.14c-1.422,0-2.787-0.565-3.792-1.571l-92.071-92.07c-1.006-1.006-1.571-2.37-1.571-3.792
		s0.565-2.787,1.571-3.792l21.125-21.125c2.094-2.094,5.491-2.094,7.584,0l92.07,92.07c2.095,2.094,2.095,5.49,0,7.584
		l-21.125,21.125C423.406,184.575,422.042,185.14,420.62,185.14z M336.133,87.707l84.486,84.486l13.54-13.541l-84.486-84.486
		L336.133,87.707z"/>
</g>
</svg>
