<?xml version="1.0" encoding="utf-8"?>
<!-- Generator: Adobe Illustrator 16.0.0, SVG Export Plug-In . SVG Version: 6.00 Build 0)  -->
<!DOCTYPE svg PUBLIC "-//W3C//DTD SVG 1.1//EN" "http://www.w3.org/Graphics/SVG/1.1/DTD/svg11.dtd">
<svg version="1.1" id="Layer_2" xmlns="http://www.w3.org/2000/svg" xmlns:xlink="http://www.w3.org/1999/xlink" x="0px" y="0px"
	 width="512px" height="512px" viewBox="0 0 512 512" enable-background="new 0 0 512 512" xml:space="preserve">
<path  fill="#FF219B"  d="M469.346,500.147H42.655c-14.776,0-26.797-12.021-26.797-26.796V299.834c0-14.775,12.021-26.796,26.797-26.796h426.691
	c14.775,0,26.796,12.021,26.796,26.796v173.518C496.143,488.127,484.122,500.147,469.346,500.147z M42.655,284.038
	c-8.71,0-15.797,7.086-15.797,15.796v173.518c0,8.71,7.086,15.796,15.797,15.796h426.691c8.71,0,15.796-7.086,15.796-15.796V299.834
	c0-8.71-7.086-15.796-15.796-15.796H42.655z"/>
<path fill="#ffffff"  d="M367.148,475.671H139.852c-9.905,0-17.963-8.059-17.963-17.963s8.058-17.963,17.963-17.963h227.296
	c9.905,0,17.963,8.059,17.963,17.963S377.053,475.671,367.148,475.671z M139.852,450.745c-3.839,0-6.963,3.123-6.963,6.963
	s3.124,6.963,6.963,6.963h227.296c3.839,0,6.963-3.123,6.963-6.963s-3.124-6.963-6.963-6.963H139.852z"/>
<path fill="#ffffff"  d="M89.537,475.671H57.463c-9.905,0-17.963-8.059-17.963-17.963s8.058-17.963,17.963-17.963h32.074
	c9.905,0,17.963,8.059,17.963,17.963S99.442,475.671,89.537,475.671z M57.463,450.745c-3.839,0-6.963,3.124-6.963,6.963
	s3.124,6.963,6.963,6.963h32.074c3.839,0,6.963-3.124,6.963-6.963s-3.124-6.963-6.963-6.963H57.463z"/>
<path fill="#ffffff"  d="M449.537,475.671h-32.074c-9.905,0-17.963-8.059-17.963-17.963s8.058-17.963,17.963-17.963h32.074
	c9.905,0,17.963,8.059,17.963,17.963S459.441,475.671,449.537,475.671z M417.462,450.745c-3.839,0-6.963,3.124-6.963,6.963
	s3.124,6.963,6.963,6.963h32.074c3.839,0,6.963-3.124,6.963-6.963s-3.124-6.963-6.963-6.963H417.462z"/>
<g>
	<path fill="#ffffff"  d="M70,337.167H58.667c-10.568,0-19.167-8.599-19.167-19.167s8.598-19.166,19.167-19.166H70
		c10.568,0,19.167,8.598,19.167,19.166S80.569,337.167,70,337.167z M58.667,309.834c-4.503,0-8.167,3.663-8.167,8.166
		s3.664,8.167,8.167,8.167H70c4.503,0,8.167-3.664,8.167-8.167s-3.664-8.166-8.167-8.166H58.667z"/>
	<path fill="#ffffff"  d="M133.056,337.167h-11.334c-10.568,0-19.166-8.599-19.166-19.167s8.598-19.166,19.166-19.166h11.334
		c10.569,0,19.167,8.598,19.167,19.166S143.625,337.167,133.056,337.167z M121.722,309.834c-4.503,0-8.166,3.663-8.166,8.166
		s3.663,8.167,8.166,8.167h11.334c4.503,0,8.167-3.664,8.167-8.167s-3.664-8.166-8.167-8.166H121.722z"/>
	<path fill="#ffffff"  d="M196.111,337.167h-11.334c-10.568,0-19.167-8.599-19.167-19.167s8.598-19.166,19.167-19.166h11.334
		c10.568,0,19.167,8.598,19.167,19.166S206.68,337.167,196.111,337.167z M184.777,309.834c-4.503,0-8.167,3.663-8.167,8.166
		s3.664,8.167,8.167,8.167h11.334c4.503,0,8.167-3.664,8.167-8.167s-3.664-8.166-8.167-8.166H184.777z"/>
	<path fill="#ffffff"  d="M259.167,337.167h-11.334c-10.569,0-19.167-8.599-19.167-19.167s8.598-19.166,19.167-19.166h11.334
		c10.568,0,19.166,8.598,19.166,19.166S269.735,337.167,259.167,337.167z M247.833,309.834c-4.503,0-8.167,3.663-8.167,8.166
		s3.664,8.167,8.167,8.167h11.334c4.503,0,8.166-3.664,8.166-8.167s-3.663-8.166-8.166-8.166H247.833z"/>
	<path fill="#ffffff"  d="M322.222,337.167h-11.334c-10.568,0-19.167-8.599-19.167-19.167s8.598-19.166,19.167-19.166h11.334
		c10.568,0,19.167,8.598,19.167,19.166S332.791,337.167,322.222,337.167z M310.888,309.834c-4.503,0-8.167,3.663-8.167,8.166
		s3.664,8.167,8.167,8.167h11.334c4.503,0,8.167-3.664,8.167-8.167s-3.664-8.166-8.167-8.166H310.888z"/>
	<path fill="#ffffff"  d="M385.277,337.167h-11.334c-10.568,0-19.166-8.599-19.166-19.167s8.598-19.166,19.166-19.166h11.334
		c10.569,0,19.167,8.598,19.167,19.166S395.846,337.167,385.277,337.167z M373.943,309.834c-4.503,0-8.166,3.663-8.166,8.166
		s3.663,8.167,8.166,8.167h11.334c4.503,0,8.167-3.664,8.167-8.167s-3.664-8.166-8.167-8.166H373.943z"/>
	<path fill="#ffffff"  d="M448.333,337.167h-11.334c-10.568,0-19.167-8.599-19.167-19.167s8.598-19.166,19.167-19.166h11.334
		c10.568,0,19.167,8.598,19.167,19.166S458.901,337.167,448.333,337.167z M436.999,309.834c-4.503,0-8.167,3.663-8.167,8.166
		s3.664,8.167,8.167,8.167h11.334c4.503,0,8.167-3.664,8.167-8.167s-3.664-8.166-8.167-8.166H436.999z"/>
</g>
<g>
	<path fill="#ffffff"  d="M70,384.168H58.667c-10.568,0-19.167-8.599-19.167-19.167s8.598-19.166,19.167-19.166H70
		c10.568,0,19.167,8.598,19.167,19.166S80.569,384.168,70,384.168z M58.667,356.835c-4.503,0-8.167,3.663-8.167,8.166
		s3.664,8.167,8.167,8.167H70c4.503,0,8.167-3.664,8.167-8.167s-3.664-8.166-8.167-8.166H58.667z"/>
	<path fill="#ffffff"  d="M133.056,384.168h-11.334c-10.568,0-19.166-8.599-19.166-19.167s8.598-19.166,19.166-19.166h11.334
		c10.569,0,19.167,8.598,19.167,19.166S143.625,384.168,133.056,384.168z M121.722,356.835c-4.503,0-8.166,3.663-8.166,8.166
		s3.663,8.167,8.166,8.167h11.334c4.503,0,8.167-3.664,8.167-8.167s-3.664-8.166-8.167-8.166H121.722z"/>
	<path fill="#ffffff"  d="M196.111,384.168h-11.334c-10.568,0-19.167-8.599-19.167-19.167s8.598-19.166,19.167-19.166h11.334
		c10.568,0,19.167,8.598,19.167,19.166S206.68,384.168,196.111,384.168z M184.777,356.835c-4.503,0-8.167,3.663-8.167,8.166
		s3.664,8.167,8.167,8.167h11.334c4.503,0,8.167-3.664,8.167-8.167s-3.664-8.166-8.167-8.166H184.777z"/>
	<path fill="#ffffff"  d="M259.167,384.168h-11.334c-10.569,0-19.167-8.599-19.167-19.167s8.598-19.166,19.167-19.166h11.334
		c10.568,0,19.166,8.598,19.166,19.166S269.735,384.168,259.167,384.168z M247.833,356.835c-4.503,0-8.167,3.663-8.167,8.166
		s3.664,8.167,8.167,8.167h11.334c4.503,0,8.166-3.664,8.166-8.167s-3.663-8.166-8.166-8.166H247.833z"/>
	<path fill="#ffffff"  d="M322.222,384.168h-11.334c-10.568,0-19.167-8.599-19.167-19.167s8.598-19.166,19.167-19.166h11.334
		c10.568,0,19.167,8.598,19.167,19.166S332.791,384.168,322.222,384.168z M310.888,356.835c-4.503,0-8.167,3.663-8.167,8.166
		s3.664,8.167,8.167,8.167h11.334c4.503,0,8.167-3.664,8.167-8.167s-3.664-8.166-8.167-8.166H310.888z"/>
	<path fill="#ffffff"  d="M385.277,384.168h-11.334c-10.568,0-19.166-8.599-19.166-19.167s8.598-19.166,19.166-19.166h11.334
		c10.569,0,19.167,8.598,19.167,19.166S395.846,384.168,385.277,384.168z M373.943,356.835c-4.503,0-8.166,3.663-8.166,8.166
		s3.663,8.167,8.166,8.167h11.334c4.503,0,8.167-3.664,8.167-8.167s-3.664-8.166-8.167-8.166H373.943z"/>
	<path fill="#ffffff"  d="M448.333,384.168h-11.334c-10.568,0-19.167-8.599-19.167-19.167s8.598-19.166,19.167-19.166h11.334
		c10.568,0,19.167,8.598,19.167,19.166S458.901,384.168,448.333,384.168z M436.999,356.835c-4.503,0-8.167,3.663-8.167,8.166
		s3.664,8.167,8.167,8.167h11.334c4.503,0,8.167-3.664,8.167-8.167s-3.664-8.166-8.167-8.166H436.999z"/>
</g>
<g>
	<path fill="#ffffff"  d="M70,431.169H58.667c-10.568,0-19.167-8.599-19.167-19.167s8.598-19.166,19.167-19.166H70
		c10.568,0,19.167,8.598,19.167,19.166S80.569,431.169,70,431.169z M58.667,403.836c-4.503,0-8.167,3.663-8.167,8.166
		s3.664,8.167,8.167,8.167H70c4.503,0,8.167-3.664,8.167-8.167s-3.664-8.166-8.167-8.166H58.667z"/>
	<path fill="#ffffff"  d="M133.056,431.169h-11.334c-10.568,0-19.166-8.599-19.166-19.167s8.598-19.166,19.166-19.166h11.334
		c10.569,0,19.167,8.598,19.167,19.166S143.625,431.169,133.056,431.169z M121.722,403.836c-4.503,0-8.166,3.663-8.166,8.166
		s3.663,8.167,8.166,8.167h11.334c4.503,0,8.167-3.664,8.167-8.167s-3.664-8.166-8.167-8.166H121.722z"/>
	<path fill="#ffffff"  d="M196.111,431.169h-11.334c-10.568,0-19.167-8.599-19.167-19.167s8.598-19.166,19.167-19.166h11.334
		c10.568,0,19.167,8.598,19.167,19.166S206.68,431.169,196.111,431.169z M184.777,403.836c-4.503,0-8.167,3.663-8.167,8.166
		s3.664,8.167,8.167,8.167h11.334c4.503,0,8.167-3.664,8.167-8.167s-3.664-8.166-8.167-8.166H184.777z"/>
	<path fill="#ffffff"  d="M259.167,431.169h-11.334c-10.569,0-19.167-8.599-19.167-19.167s8.598-19.166,19.167-19.166h11.334
		c10.568,0,19.166,8.598,19.166,19.166S269.735,431.169,259.167,431.169z M247.833,403.836c-4.503,0-8.167,3.663-8.167,8.166
		s3.664,8.167,8.167,8.167h11.334c4.503,0,8.166-3.664,8.166-8.167s-3.663-8.166-8.166-8.166H247.833z"/>
	<path fill="#ffffff"  d="M322.222,431.169h-11.334c-10.568,0-19.167-8.599-19.167-19.167s8.598-19.166,19.167-19.166h11.334
		c10.568,0,19.167,8.598,19.167,19.166S332.791,431.169,322.222,431.169z M310.888,403.836c-4.503,0-8.167,3.663-8.167,8.166
		s3.664,8.167,8.167,8.167h11.334c4.503,0,8.167-3.664,8.167-8.167s-3.664-8.166-8.167-8.166H310.888z"/>
	<path fill="#ffffff"  d="M385.277,431.169h-11.334c-10.568,0-19.166-8.599-19.166-19.167s8.598-19.166,19.166-19.166h11.334
		c10.569,0,19.167,8.598,19.167,19.166S395.846,431.169,385.277,431.169z M373.943,403.836c-4.503,0-8.166,3.663-8.166,8.166
		s3.663,8.167,8.166,8.167h11.334c4.503,0,8.167-3.664,8.167-8.167s-3.664-8.166-8.167-8.166H373.943z"/>
	<path fill="#ffffff"  d="M448.333,431.169h-11.334c-10.568,0-19.167-8.599-19.167-19.167s8.598-19.166,19.167-19.166h11.334
		c10.568,0,19.167,8.598,19.167,19.166S458.901,431.169,448.333,431.169z M436.999,403.836c-4.503,0-8.167,3.663-8.167,8.166
		s3.664,8.167,8.167,8.167h11.334c4.503,0,8.167-3.664,8.167-8.167s-3.664-8.166-8.167-8.166H436.999z"/>
</g>
<path  fill="#FF219B"  d="M84.408,266.012c-23.456,0-42.195-8.721-54.192-25.219c-12.526-17.225-13.878-37.254-13.878-45.066v-80.414
	c0-28.164,22.913-51.077,51.077-51.077h32.503c28.164,0,51.077,22.913,51.077,51.077v80.414
	C150.996,228.149,133.557,266.012,84.408,266.012z M67.415,75.235c-22.099,0-40.077,17.979-40.077,40.077v80.414
	c0,6.736,1.147,23.983,11.774,38.598c9.982,13.728,25.222,20.688,45.296,20.688c19.971,0,34.94-6.932,44.494-20.604
	c10.012-14.328,11.093-31.824,11.093-38.682v-80.414c0-22.099-17.979-40.077-40.077-40.077H67.415z"/>
<path  fill="#FF219B"   d="M145.496,138.23H21.838c-3.038,0-5.5-2.463-5.5-5.5v-17.418c0-28.164,22.913-51.077,51.077-51.077h32.503
	c28.164,0,51.077,22.913,51.077,51.077v17.418C150.996,135.768,148.533,138.23,145.496,138.23z M27.338,127.23h112.658v-11.918
	c0-22.099-17.979-40.077-40.077-40.077H67.415c-22.099,0-40.077,17.979-40.077,40.077V127.23z"/>
<path  fill="#FF219B"  d="M83.667,125.175c-3.038,0-5.5-2.463-5.5-5.5V83.5c0-3.037,2.462-5.5,5.5-5.5s5.5,2.463,5.5,5.5v36.175
	C89.167,122.712,86.704,125.175,83.667,125.175z"/>
<path fill="#ffffff"  d="M253.5,278.751c-3.038,0-5.5-2.463-5.5-5.5v-1.234c0-20.962,16.724-38.092,37.53-38.747c0.397-0.092,0.811-0.14,1.236-0.14
	h168.611c15.311,0,27.766-12.456,27.766-27.767v-1.234c0-15.311-12.456-27.767-27.766-27.767H325
	c-21.376,0-38.767-17.391-38.767-38.767v-1.234c0-21.376,17.391-38.767,38.767-38.767h112.004c3.038,0,5.5,2.463,5.5,5.5
	s-2.462,5.5-5.5,5.5H325c-15.311,0-27.767,12.456-27.767,27.767v1.234c0,15.311,12.456,27.767,27.767,27.767h130.377
	c21.375,0,38.766,17.391,38.766,38.767v1.234c0,21.376-17.391,38.767-38.766,38.767H287.914c-0.371,0.079-0.754,0.12-1.148,0.12
	c-15.31,0-27.766,12.456-27.766,27.767v1.234C259,276.288,256.537,278.751,253.5,278.751z"/>
<path fill="#ffffff"  d="M230.733,232.5h-1.234c-21.376,0-38.767-17.391-38.767-38.766V62.729c-0.079-0.37-0.12-0.755-0.12-1.148
	c0-15.31-12.456-27.766-27.767-27.766H121c-0.13,0-0.26-0.005-0.389-0.014c-0.102-0.006-12.697-0.683-21.699,7.779
	c-6.466,6.078-9.745,15.551-9.745,28.154c0,3.037-2.462,5.5-5.5,5.5s-5.5-2.463-5.5-5.5c0-15.834,4.485-28.041,13.331-36.281
	c11.916-11.102,27.472-10.745,29.657-10.639h41.691c20.962,0,38.092,16.724,38.747,37.529c0.091,0.397,0.14,0.812,0.14,1.236
	v132.153c0,15.31,12.456,27.766,27.767,27.766h1.234c15.311,0,27.767-12.456,27.767-27.766V61.581
	c0-19.327,14.492-30.865,38.767-30.865h139.738c3.038,0,5.5,2.463,5.5,5.5s-2.462,5.5-5.5,5.5H297.267
	c-22.949,0-27.767,10.803-27.767,19.865v132.153C269.5,215.109,252.109,232.5,230.733,232.5z"/>
<path fill="#FF219B" d="M463.369,134.193h-12.728c-10.552,0-19.137-8.585-19.137-19.137V91.133c0-10.552,8.584-19.137,19.137-19.137
	h12.728c10.552,0,19.137,8.585,19.137,19.137v23.924C482.506,125.608,473.921,134.193,463.369,134.193z"/>
<path fill="#FF219B" d="M463.369,67.314h-12.728c-10.552,0-19.137-8.585-19.137-19.137V24.254c0-10.552,8.584-19.137,19.137-19.137
	h12.728c10.552,0,19.137,8.585,19.137,19.137v23.924C482.506,58.729,473.921,67.314,463.369,67.314z"/>
</svg>
