<?xml version="1.0" encoding="utf-8"?>
<!-- Generator: Adobe Illustrator 16.0.0, SVG Export Plug-In . SVG Version: 6.00 Build 0)  -->
<!DOCTYPE svg PUBLIC "-//W3C//DTD SVG 1.1//EN" "http://www.w3.org/Graphics/SVG/1.1/DTD/svg11.dtd">
<svg version="1.1" id="Layer_2" xmlns="http://www.w3.org/2000/svg" xmlns:xlink="http://www.w3.org/1999/xlink" x="0px" y="0px"
	 width="512px" height="512px" viewBox="0 0 512 512" enable-background="new 0 0 512 512" xml:space="preserve">
<g>
	<path fill="#ffffff"  d="M445.418,414.795H66.098c-32.288,0-58.556-26.268-58.556-58.555V94.451c0-32.287,26.268-58.555,58.556-58.555h379.32
		c32.287,0,58.555,26.268,58.555,58.555V356.24C503.973,388.527,477.706,414.795,445.418,414.795z M66.098,46.896
		c-26.222,0-47.556,21.333-47.556,47.555V356.24c0,26.222,21.333,47.555,47.556,47.555h379.32c26.222,0,47.555-21.333,47.555-47.555
		V94.451c0-26.222-21.333-47.555-47.555-47.555H66.098z"/>
	<path fill="#ffffff"  d="M450.382,356.5H67c-14.061,0-25.5-11.439-25.5-25.5V91.883c0-14.061,11.439-25.5,25.5-25.5h383.382
		c14.061,0,25.5,11.439,25.5,25.5V331C475.882,345.061,464.443,356.5,450.382,356.5z M67,77.383c-7.995,0-14.5,6.505-14.5,14.5V331
		c0,7.995,6.505,14.5,14.5,14.5h383.382c7.995,0,14.5-6.505,14.5-14.5V91.883c0-7.995-6.505-14.5-14.5-14.5H67z"/>
	<path fill="#ffffff"  d="M258.691,400.81c-10.923,0-19.809-8.886-19.809-19.809s8.886-19.809,19.809-19.809c10.922,0,19.809,8.886,19.809,19.809
		S269.614,400.81,258.691,400.81z M258.691,372.192c-4.857,0-8.809,3.951-8.809,8.809s3.952,8.809,8.809,8.809
		c4.857,0,8.809-3.951,8.809-8.809S263.548,372.192,258.691,372.192z"/>
	<path fill="#ffffff"  d="M362.27,475.833H149.246c-11.487,0-20.833-9.346-20.833-20.833s9.346-20.833,20.833-20.833H362.27
		c11.487,0,20.833,9.346,20.833,20.833S373.757,475.833,362.27,475.833z M149.246,445.167c-5.422,0-9.833,4.411-9.833,9.833
		s4.411,9.833,9.833,9.833H362.27c5.422,0,9.833-4.411,9.833-9.833s-4.411-9.833-9.833-9.833H149.246z"/>
	<path fill="#ffffff" d="M346.777,445.391H164.738c-2.715,0-5.023-1.98-5.436-4.664s1.194-5.267,3.784-6.082c0.212-0.067,22.505-7.424,22.505-25.35
		c0-3.037,2.462-5.5,5.5-5.5h129.333c3.038,0,5.5,2.463,5.5,5.5c0,17.926,22.293,25.282,22.519,25.354
		c2.58,0.828,4.18,3.413,3.762,6.09C351.786,443.415,349.487,445.391,346.777,445.391z M184.841,434.391h141.783
		c-5.196-4.694-9.822-11.108-11.249-19.596h-119.25C194.861,422.133,191.034,428.785,184.841,434.391z"/>
	<path fill="#FF219B" d="M225.297,277.5H104.18c-3.038,0-5.5-2.463-5.5-5.5V150.883c0-3.037,2.462-5.5,5.5-5.5h121.117
		c3.038,0,5.5,2.463,5.5,5.5V272C230.797,275.037,228.334,277.5,225.297,277.5z"/>
	<path fill="#FF219B" d="M420.829,277.5c-0.007,0-0.013,0-0.02,0H299.691c-1.906,0-3.676-0.987-4.679-2.608
		c-1.002-1.621-1.093-3.646-0.241-5.352l60.559-121.117c0.932-1.863,2.836-3.04,4.919-3.04s3.988,1.177,4.919,3.04l60.36,120.721
		c0.507,0.832,0.799,1.811,0.799,2.856C426.329,275.037,423.866,277.5,420.829,277.5z"/>
</g>
</svg>
