<?xml version="1.0" encoding="utf-8"?>
<!-- Generator: Adobe Illustrator 15.1.0, SVG Export Plug-In . SVG Version: 6.00 Build 0)  -->
<!DOCTYPE svg PUBLIC "-//W3C//DTD SVG 1.1//EN" "http://www.w3.org/Graphics/SVG/1.1/DTD/svg11.dtd">
<svg version="1.1" id="Layer_1" xmlns="http://www.w3.org/2000/svg" xmlns:xlink="http://www.w3.org/1999/xlink" x="0px" y="0px"
	 width="512px" height="512px" viewBox="0 0 512 512" enable-background="new 0 0 512 512" xml:space="preserve">
<path fill="#FE18A4" d="M256,0C114.613,0,0,114.619,0,256c0,141.383,114.613,256,256,256c141.385,0,256-114.617,256-256
	C512,114.619,397.385,0,256,0z M256,496C123.451,496,16,388.545,16,256S123.451,16,256,16s240,107.455,240,240S388.549,496,256,496z
	"/>
<g>
	<path fill="#FE18A4" d="M396.504,113.049c-2.25-1.479-5.094-1.727-7.566-0.658l-90.117,38.926l-82.281-38.588
		c-2.23-1.045-4.816-1.004-7.016,0.109l-93.582,47.445c-2.688,1.363-4.383,4.121-4.383,7.137v224.865
		c0,2.701,1.363,5.221,3.625,6.697c1.32,0.863,2.844,1.303,4.375,1.303c1.09,0,2.184-0.223,3.213-0.674l90.232-39.562l82.309,39.219
		c2.285,1.09,4.953,1.031,7.191-0.154l93.355-49.518c2.613-1.387,4.25-4.105,4.25-7.066V119.734
		C400.109,117.041,398.754,114.529,396.504,113.049z M384.109,189.051c-11.162-4.951-22.391-5.611-33.521-1.904
		c-19.027,6.34-34.137,24.549-44.828,43.484v-64.883l78.35-33.844V189.051z M221.141,132.561l68.619,32.18v103.506
		c-3.742,11.15-14.049,19.389-26.576,21.1c-15.902,2.172-31.123-5.887-42.043-22.168V132.561z M221.141,291.225
		c10.863,9.375,23.707,14.465,37.039,14.465c2.377,0,4.773-0.162,7.172-0.49c9.18-1.254,17.576-4.936,24.408-10.373V378.9
		l-68.619-32.697V291.225z M205.141,132.998v116.328c-12.6-9.219-29.301-13.42-49.332-12.258c-11.061,0.641-21.1,2.793-28.25,4.738
		v-69.475L205.141,132.998z M127.559,258.48c14.791-4.531,57.898-14.672,77.582,13.479v74.066l-77.582,34.016V258.48z
		 M305.76,379.275V270.744c7.229-23.594,26.137-60.506,49.885-68.416c9.275-3.092,18.619-1.486,28.465,4.883v130.506L305.76,379.275
		z"/>
	<circle fill="#FE18A4" cx="344.002" cy="276.646" r="16"/>
</g>
</svg>
