<?xml version="1.0" encoding="utf-8"?>
<!-- Generator: Adobe Illustrator 15.1.0, SVG Export Plug-In . SVG Version: 6.00 Build 0)  -->
<!DOCTYPE svg PUBLIC "-//W3C//DTD SVG 1.1//EN" "http://www.w3.org/Graphics/SVG/1.1/DTD/svg11.dtd">
<svg version="1.1" id="Layer_1" xmlns="http://www.w3.org/2000/svg" xmlns:xlink="http://www.w3.org/1999/xlink" x="0px" y="0px"
	 width="512px" height="512px" viewBox="0 0 512 512" enable-background="new 0 0 512 512" xml:space="preserve">
<path fill="#FE18A4" d="M256,0C114.614,0,0,114.619,0,256c0,141.383,114.614,256,256,256c141.385,0,256-114.617,256-256
	C512,114.619,397.385,0,256,0z M256,496C123.451,496,16,388.545,16,256S123.451,16,256,16s240,107.455,240,240S388.549,496,256,496z
	"/>
<g>
	<path fill="#FE18A4" d="M326.399,88.646H184.774c-16.095,0-29.188,13.086-29.188,29.172v277.656
		c0,16.084,13.093,29.172,29.188,29.172h141.625c16.095,0,29.188-13.088,29.188-29.172V117.818
		C355.587,101.732,342.494,88.646,326.399,88.646z M171.587,136.646h168v192.125h-168V136.646z M184.774,104.646h141.625
		c7.271,0,13.188,5.908,13.188,13.172v2.828h-168v-2.828C171.587,110.555,177.503,104.646,184.774,104.646z M326.399,408.646
		H184.774c-7.271,0-13.188-5.91-13.188-13.172v-50.703h168v50.703C339.587,402.736,333.671,408.646,326.399,408.646z"/>
	<path fill="#FE18A4" d="M255.557,357.736c-8.825,0-16,7.16-16,16c0,8.836,7.175,16,16,16c8.838,0,16-7.164,16-16
		C271.557,364.896,264.395,357.736,255.557,357.736z"/>
</g>
</svg>
